<svg width="309" height="274" viewBox="0 0 309 274" fill="none" xmlns="http://www.w3.org/2000/svg">
<path d="M308.893 124.017H309C309 56.1091 276.13 93.0127 273.716 56.1091C271.267 19.2054 237.225 11.7988 205.562 14.7701C173.899 17.7413 154.518 0 154.518 0C154.518 0 135.101 17.7413 103.473 14.7701C71.8456 11.7988 37.7331 19.2054 35.3194 56.1091C32.8701 93.0127 0 56.1091 0 124.017V149.983C0 217.891 32.8701 180.987 35.2839 217.891C37.7331 254.795 71.8101 262.201 103.438 259.23C135.065 256.259 154.482 274 154.482 274C154.482 274 173.899 256.302 205.527 259.23C237.19 262.201 271.267 254.795 273.681 217.891C276.13 180.987 308.965 217.891 308.965 149.983H308.858V124.017H308.893Z" fill="white"/>
</svg>
